<svg xmlns="http://www.w3.org/2000/svg" xmlns:xlink="http://www.w3.org/1999/xlink" version="1.1" width="256" height="256" viewBox="0 0 256 256" xml:space="preserve">

<defs>
</defs>
<g style="stroke: none; stroke-width: 0; stroke-dasharray: none; stroke-linecap: butt; stroke-linejoin: miter; stroke-miterlimit: 10; fill: none; fill-rule: nonzero; opacity: 1;" transform="translate(1.4065934065934016 1.4065934065934016) scale(2.81 2.81)" >
	<path d="M 45 8.109 c 12.015 0 13.439 0.046 18.184 0.262 c 4.387 0.2 6.77 0.933 8.356 1.549 c 1.955 0.721 3.723 1.872 5.174 3.366 c 1.495 1.452 2.645 3.22 3.366 5.174 c 0.616 1.586 1.349 3.968 1.549 8.356 c 0.216 4.745 0.262 6.168 0.262 18.184 s -0.046 13.439 -0.262 18.184 c -0.2 4.387 -0.933 6.77 -1.549 8.356 c -1.514 3.924 -4.616 7.026 -8.54 8.54 c -1.586 0.616 -3.968 1.349 -8.356 1.549 C 58.44 81.847 57.016 81.893 45 81.893 S 31.56 81.847 26.816 81.63 c -4.387 -0.2 -6.77 -0.933 -8.356 -1.549 c -1.955 -0.721 -3.723 -1.872 -5.174 -3.366 c -1.495 -1.452 -2.645 -3.22 -3.366 -5.174 c -0.616 -1.586 -1.349 -3.968 -1.549 -8.356 c -0.216 -4.745 -0.262 -6.168 -0.262 -18.184 S 8.154 31.562 8.37 26.816 c 0.2 -4.387 0.933 -6.77 1.549 -8.356 c 0.721 -1.955 1.872 -3.723 3.367 -5.174 c 1.452 -1.495 3.22 -2.645 5.174 -3.366 c 1.586 -0.616 3.968 -1.349 8.356 -1.549 C 31.561 8.154 32.984 8.108 45 8.109 M 45 0 C 32.779 0 31.246 0.052 26.447 0.271 c -4.79 0.219 -8.061 0.979 -10.923 2.092 c -3.003 1.13 -5.723 2.901 -7.97 5.19 c -2.29 2.248 -4.061 4.968 -5.192 7.97 c -1.112 2.862 -1.872 6.133 -2.09 10.923 C 0.052 31.246 0 32.779 0 45 s 0.052 13.754 0.272 18.553 c 0.219 4.79 0.979 8.061 2.092 10.923 c 1.13 3.003 2.901 5.723 5.19 7.97 c 2.248 2.289 4.968 4.06 7.97 5.19 c 2.862 1.112 6.133 1.873 10.923 2.092 C 31.247 89.948 32.779 90 45 90 s 13.754 -0.052 18.553 -0.271 c 4.79 -0.219 8.061 -0.979 10.923 -2.092 c 6.044 -2.338 10.823 -7.116 13.161 -13.161 c 1.112 -2.862 1.873 -6.133 2.092 -10.923 C 89.948 58.754 90 57.221 90 45 s -0.052 -13.754 -0.271 -18.553 c -0.219 -4.79 -0.979 -8.061 -2.092 -10.923 c -1.13 -3.003 -2.901 -5.723 -5.19 -7.97 c -2.248 -2.29 -4.968 -4.061 -7.971 -5.191 c -2.862 -1.112 -6.133 -1.872 -10.923 -2.09 C 58.754 0.052 57.221 0 45 0 L 45 0 L 45 0 z" style="stroke: none; stroke-width: 1; stroke-dasharray: none; stroke-linecap: butt; stroke-linejoin: miter; stroke-miterlimit: 10; fill: rgb(255,255,255); fill-rule: nonzero; opacity: 1;" transform=" matrix(1 0 0 1 0 0) " stroke-linecap="round" />
	<path d="M 45 21.892 c -12.762 0 -23.108 10.346 -23.108 23.108 S 32.238 68.108 45 68.108 S 68.108 57.762 68.108 45 l 0 0 C 68.108 32.238 57.762 21.892 45 21.892 z M 45 60 c -8.284 0 -15 -6.716 -15 -15 s 6.716 -15 15 -15 c 8.284 0 15 6.716 15 15 C 60 53.284 53.284 60 45 60 z" style="stroke: none; stroke-width: 1; stroke-dasharray: none; stroke-linecap: butt; stroke-linejoin: miter; stroke-miterlimit: 10; fill: rgb(255,255,255); fill-rule: nonzero; opacity: 1;" transform=" matrix(1 0 0 1 0 0) " stroke-linecap="round" />
	<circle cx="69.02" cy="20.98" r="5.4" style="stroke: none; stroke-width: 1; stroke-dasharray: none; stroke-linecap: butt; stroke-linejoin: miter; stroke-miterlimit: 10; fill: rgb(255,255,255); fill-rule: nonzero; opacity: 1;" transform="  matrix(1 0 0 1 0 0) "/>
</g>
</svg>