<svg xmlns="http://www.w3.org/2000/svg" viewBox="0 0 479 125.05"><g id="Layer_2" data-name="Layer 2"><g id="Layer_1-2" data-name="Layer 1"><polygon points="203.34 91.95 194.95 91.95 199.17 77.24 203.34 91.95" style="fill:#fff"/><path d="M310.4,76.61h-3.58V85.8h3.53c3.68,0,5.5-1.55,5.5-4.65v-.21C315.85,77.84,313.93,76.61,310.4,76.61Zm0,0h-3.58V85.8h3.53c3.68,0,5.5-1.55,5.5-4.65v-.21C315.85,77.84,313.93,76.61,310.4,76.61ZM417.61,50l-187.2,1.52L207,68.57l12.07,38h-11.6l-2-7.11H192.81l-2,7.11H180.57l7.82-24.41L166,98.53v26.52H417.61L479,87.58ZM251.93,106.59H226.49V68.38h11V98.09h14.43Zm35.54,0H260.21V68.38h26.41v8.44H271.11v6.57h12.36V91.2H271.11v7h16.36Zm29.67,0-7.75-13.68h-2.57v13.68h-10.9V68.38h15c10,0,15.56,4.06,15.56,12.13v.21a10,10,0,0,1-6.9,10l9.14,15.82Zm46.18-29.77h-9.89v29.77h-11V76.82h-9.89V68.38h30.79Zm21.27,30.42c-10.69,0-16.14-4.5-16.46-12.78h10.42c.27,2.73,1.5,5,6,5,3.16,0,4.92-1.55,4.92-3.8s-1.44-3-6-3.68C372.67,90.67,369,87.45,369,79.76c0-6.9,5.67-11.92,14.81-11.92s14.38,3.85,15.08,11.92H388.76c-.38-2.73-1.92-4.11-4.92-4.11S379.4,77,379.4,78.9c0,2.14,1.19,3.1,5.94,3.75C395,83.72,400,86.23,400,94.51,400,101.51,394.42,107.24,384.59,107.24ZM310.4,76.61h-3.58V85.8h3.53c3.68,0,5.5-1.55,5.5-4.65v-.21C315.85,77.84,313.93,76.61,310.4,76.61Zm0,0h-3.58V85.8h3.53c3.68,0,5.5-1.55,5.5-4.65v-.21C315.85,77.84,313.93,76.61,310.4,76.61Zm0,0h-3.58V85.8h3.53c3.68,0,5.5-1.55,5.5-4.65v-.21C315.85,77.84,313.93,76.61,310.4,76.61Z" style="fill:#fff"/><path d="M47.56,30.94v.22c0,3.1-1.81,4.64-5.5,4.64H38.53V26.61h3.58C45.64,26.61,47.56,27.84,47.56,30.94Z" style="fill:#fff"/><path d="M82.52,26.4c-5.4,0-8.77,3.9-8.77,10.85v.42c0,6.95,3.53,11,8.82,11s8.77-4.17,8.77-11V37.2C91.34,30.41,87.92,26.4,82.52,26.4Zm0,0c-5.4,0-8.77,3.9-8.77,10.85v.42c0,6.95,3.53,11,8.82,11s8.77-4.17,8.77-11V37.2C91.34,30.41,87.92,26.4,82.52,26.4Zm0,0c-5.4,0-8.77,3.9-8.77,10.85v.42c0,6.95,3.53,11,8.82,11s8.77-4.17,8.77-11V37.2C91.34,30.41,87.92,26.4,82.52,26.4Zm0,0c-5.4,0-8.77,3.9-8.77,10.85v.42c0,6.95,3.53,11,8.82,11s8.77-4.17,8.77-11V37.2C91.34,30.41,87.92,26.4,82.52,26.4Zm0,0c-5.4,0-8.77,3.9-8.77,10.85v.42c0,6.95,3.53,11,8.82,11s8.77-4.17,8.77-11V37.2C91.34,30.41,87.92,26.4,82.52,26.4Zm0,0c-5.4,0-8.77,3.9-8.77,10.85v.42c0,6.95,3.53,11,8.82,11s8.77-4.17,8.77-11V37.2C91.34,30.41,87.92,26.4,82.52,26.4Zm0,0c-5.4,0-8.77,3.9-8.77,10.85v.42c0,6.95,3.53,11,8.82,11s8.77-4.17,8.77-11V37.2C91.34,30.41,87.92,26.4,82.52,26.4Zm0,0c-5.4,0-8.77,3.9-8.77,10.85v.42c0,6.95,3.53,11,8.82,11s8.77-4.17,8.77-11V37.2C91.34,30.41,87.92,26.4,82.52,26.4Zm0,0c-5.4,0-8.77,3.9-8.77,10.85v.42c0,6.95,3.53,11,8.82,11s8.77-4.17,8.77-11V37.2C91.34,30.41,87.92,26.4,82.52,26.4Zm0,0c-5.4,0-8.77,3.9-8.77,10.85v.42c0,6.95,3.53,11,8.82,11s8.77-4.17,8.77-11V37.2C91.34,30.41,87.92,26.4,82.52,26.4ZM9.85,0V75H187.2L212.48,56.6h-25V18.38H213.9v8.44H198.4V33.4h12.34v7.81H198.4v6.94h16.35v6.79l12.77-9.31V26.82h-9.88V18.38h30.79v8.44h-9.89V37.6L260,22V0Zm39,56.6L41.09,42.91H38.53V56.6H27.63V18.38h15c10,0,15.56,4.06,15.56,12.13v.21a10,10,0,0,1-6.9,10.05L60.39,56.6Zm53.93-19.14c0,11.76-8.07,19.78-20.42,19.78s-20-8-20-19.51V37.3c0-11.65,8.76-19.45,20.2-19.45,11.65,0,20.26,7.32,20.26,19.19Zm23.3,19.78c-13.36,0-19.93-7.8-19.93-19.51V37.3c0-11.76,8.33-19.51,19.5-19.51,9.95,0,16.84,4.6,17.75,14.7H132.12c-.43-3.9-2.56-6-6.41-6-4.92,0-8,3.85-8,10.8v.42c0,6.9,2.94,10.8,8.18,10.8,3.85,0,6.57-2,7.11-6.25h10.9C143.13,52.1,136,57.24,126.08,57.24Zm44.63-.64-11-16v16h-11V18.38h11V33.51l11.49-15.13h11.44l-14,17.75L183.38,56.6ZM82.52,26.4c-5.4,0-8.77,3.9-8.77,10.85v.42c0,6.95,3.53,11,8.82,11s8.77-4.17,8.77-11V37.2C91.34,30.41,87.92,26.4,82.52,26.4Zm0,0c-5.4,0-8.77,3.9-8.77,10.85v.42c0,6.95,3.53,11,8.82,11s8.77-4.17,8.77-11V37.2C91.34,30.41,87.92,26.4,82.52,26.4Zm0,0c-5.4,0-8.77,3.9-8.77,10.85v.42c0,6.95,3.53,11,8.82,11s8.77-4.17,8.77-11V37.2C91.34,30.41,87.92,26.4,82.52,26.4Zm0,0c-5.4,0-8.77,3.9-8.77,10.85v.42c0,6.95,3.53,11,8.82,11s8.77-4.17,8.77-11V37.2C91.34,30.41,87.92,26.4,82.52,26.4Zm0,0c-5.4,0-8.77,3.9-8.77,10.85v.42c0,6.95,3.53,11,8.82,11s8.77-4.17,8.77-11V37.2C91.34,30.41,87.92,26.4,82.52,26.4Zm0,0c-5.4,0-8.77,3.9-8.77,10.85v.42c0,6.95,3.53,11,8.82,11s8.77-4.17,8.77-11V37.2C91.34,30.41,87.92,26.4,82.52,26.4Zm0,0c-5.4,0-8.77,3.9-8.77,10.85v.42c0,6.95,3.53,11,8.82,11s8.77-4.17,8.77-11V37.2C91.34,30.41,87.92,26.4,82.52,26.4Zm0,0c-5.4,0-8.77,3.9-8.77,10.85v.42c0,6.95,3.53,11,8.82,11s8.77-4.17,8.77-11V37.2C91.34,30.41,87.92,26.4,82.52,26.4Zm0,0c-5.4,0-8.77,3.9-8.77,10.85v.42c0,6.95,3.53,11,8.82,11s8.77-4.17,8.77-11V37.2C91.34,30.41,87.92,26.4,82.52,26.4Zm0,0c-5.4,0-8.77,3.9-8.77,10.85v.42c0,6.95,3.53,11,8.82,11s8.77-4.17,8.77-11V37.2C91.34,30.41,87.92,26.4,82.52,26.4Zm0,0c-5.4,0-8.77,3.9-8.77,10.85v.42c0,6.95,3.53,11,8.82,11s8.77-4.17,8.77-11V37.2C91.34,30.41,87.92,26.4,82.52,26.4Z" style="fill:#fff"/><ellipse cx="9.09" cy="37.52" rx="9.09" ry="37.52" style="fill:#fff"/></g></g></svg>